<svg width="107" height="38" viewBox="0 0 107 38" fill="none" xmlns="http://www.w3.org/2000/svg">
<path d="M19.2092 13.6082C19.4382 13.7579 19.6069 13.8948 19.7152 14.0189C19.8073 14.1245 19.8848 14.232 19.9475 14.3414C20.1567 14.794 20.2473 15.2798 20.2193 15.7987C20.1286 17.6358 18.8903 19.7923 16.5044 22.2682C16.167 22.6204 15.8832 22.9089 15.6531 23.1337C15.3357 23.4463 15.1462 23.6298 15.0844 23.6842L14.9176 23.8312L20.0281 22.2106C22.1331 21.5418 23.8277 20.9601 25.1119 20.4654C25.1776 20.4404 25.2216 20.4346 25.2441 20.4478C25.3168 20.4935 25.313 20.5956 25.2328 20.7542C25.2166 20.8233 25.1862 20.8886 25.1414 20.95C25.1082 21.0122 25.0669 21.0651 25.0175 21.1086C24.9805 21.1413 24.9561 21.1573 24.9445 21.1565C21.9581 22.3056 18.4441 23.4638 14.4025 24.6311C14.1119 24.7114 13.9307 24.7229 13.8587 24.6655C13.6692 24.536 13.825 24.2449 14.3262 23.7923C17.5819 20.8354 19.3518 18.4301 19.6358 16.5765C19.757 15.7887 19.6145 15.162 19.2081 14.6964C18.8343 14.2681 18.3497 14.0197 17.7544 13.9512C15.8989 13.7412 13.5717 14.6938 10.7726 16.809C10.3316 17.1427 9.86701 17.5246 9.37894 17.9547C8.42751 18.7931 7.51677 19.722 6.64671 20.7413C5.6817 21.8772 4.92803 22.9422 4.3857 23.9363C3.84338 24.9303 3.52864 25.8721 3.44151 26.7616C3.37119 27.4825 3.3973 28.0196 3.51983 28.3729C3.61289 28.6423 3.74877 28.8356 3.92747 28.9527C4.38001 29.2458 4.86576 29.1637 5.38472 28.7064L5.47739 28.6247C5.51446 28.592 5.53955 28.5644 5.55267 28.5419C5.66464 28.4322 5.73996 28.3933 5.77865 28.4251C5.87845 28.5019 5.85968 28.6557 5.72234 28.8866C5.61199 29.0607 5.50122 29.1968 5.39001 29.2948C5.112 29.5397 4.81882 29.7047 4.51048 29.7898C4.13028 29.9051 3.80635 29.8721 3.53869 29.6906C3.22615 29.4828 3.01855 29.0947 2.91588 28.5262C2.89563 28.3903 2.87999 28.2284 2.86896 28.0404C2.80599 26.3277 3.5046 24.4107 4.9648 22.2893C6.09699 20.6436 7.59597 18.9987 9.46176 17.3546C10.9816 16.0153 12.5094 14.9545 14.0453 14.1721C16.2982 13.0215 18.0195 12.8336 19.2092 13.6082ZM11.5321 17.8859C11.5188 17.7329 11.6357 17.5475 11.8828 17.3297C11.957 17.2644 12.0138 17.2418 12.0532 17.2619C12.064 17.2743 12.0687 17.2922 12.0672 17.3155L13.0075 24.5919C13.0442 24.922 13.0988 25.379 13.1714 25.9631C13.3086 26.9843 13.527 28.0549 13.8266 29.1746C13.8693 29.3237 13.764 29.5098 13.5107 29.7331C13.4242 29.8093 13.3585 29.8342 13.3136 29.8078C13.2974 29.7892 13.29 29.7683 13.2915 29.745C12.9843 28.7417 12.7562 27.6413 12.6072 26.4437L12.3581 24.5052C12.3222 24.1635 12.2679 23.7006 12.1954 23.1166C12.0379 21.9594 11.8168 20.2158 11.5321 17.8859Z" fill="#BCA8D2"/>
<path d="M29.2001 13.0929C29.2423 12.9716 29.3522 12.8679 29.5298 12.7819C29.589 12.7532 29.6295 12.7519 29.6512 12.7781C29.669 12.8152 29.6703 12.8559 29.6549 12.9C29.4631 13.4696 29.2103 14.055 28.8967 14.6562L28.0015 16.355C27.79 16.7508 27.571 17.1595 27.3445 17.5809C26.9906 18.1741 26.6135 18.586 26.2133 18.8166C25.7796 19.0725 25.4618 19.0661 25.2598 18.7973C25.0181 18.4836 25.0008 18.0199 25.208 17.4061C25.3574 16.9762 25.5823 16.5418 25.8826 16.103C25.6381 16.2398 25.3889 16.3193 25.1349 16.3415C24.9619 16.3611 24.8321 16.3187 24.7453 16.214C24.6188 16.0645 24.6396 15.7656 24.8077 15.3175C25.0635 14.6527 25.575 13.9603 26.3424 13.2401C26.7 12.9018 27.0436 12.6482 27.3731 12.4794C27.6952 12.3141 27.8941 12.2819 27.9699 12.3827C28.0563 12.5058 28.0276 12.7122 27.8839 13.0019C27.6984 13.3759 27.5206 13.6042 27.3504 13.6867C27.2393 13.7405 27.1676 13.7431 27.1353 13.6947C27.0919 13.6423 27.1227 13.5449 27.2276 13.4024C27.4339 13.1099 27.5262 12.9506 27.5046 12.9244C27.4867 12.8872 27.4278 12.8975 27.3277 12.9551C27.0385 13.1319 26.7054 13.4263 26.3283 13.8382C25.3988 14.8478 25.0459 15.5 25.2695 15.795C25.3129 15.8473 25.3751 15.863 25.4563 15.842C25.5964 15.8108 25.7888 15.7175 26.0336 15.5623C26.3341 15.3708 26.5736 15.1952 26.7523 15.0353C26.7783 15.0135 26.821 14.9882 26.8802 14.9595C26.9468 14.9273 27.0019 14.9281 27.0455 14.9619C27.0996 15.0366 27.0461 15.1817 26.885 15.3972C26.7652 15.5469 26.6529 15.693 26.5479 15.8356C26.4394 15.9706 26.2927 16.2067 26.1078 16.5438C25.7041 17.2803 25.5528 17.8395 25.6539 18.2213C25.761 18.4444 25.8997 18.5148 26.0699 18.4323C26.477 18.235 27.0731 17.4145 27.8581 15.9707C28.4659 14.842 28.9132 13.8827 29.2001 13.0929Z" fill="#BCA8D2"/>
<path d="M33.8165 11.3227C33.8672 11.2177 34.0091 11.1247 34.2421 11.0437C34.3508 11.0059 34.4119 11.0065 34.4253 11.0455C34.4411 11.0662 34.4364 11.1028 34.411 11.1553C33.7466 12.3824 33.1171 13.3571 32.5224 14.0794C32.3071 14.3378 32.1198 14.5514 31.9606 14.7204C31.2954 15.4148 30.7376 15.8403 30.2872 15.9969C29.8135 16.1616 29.4562 16.0456 29.2152 15.6488C29.1832 15.5813 29.1393 15.4917 29.0835 15.3801C28.9706 15.0524 29.0197 14.5635 29.2306 13.9135C29.3764 13.4783 29.62 12.9611 29.9614 12.3618C30.4557 11.4997 31.0327 10.8141 31.6922 10.3052C31.9189 10.1303 32.1176 10.0131 32.2885 9.95368C32.6612 9.82406 32.936 9.87706 33.1128 10.1127C33.2875 10.3927 33.0818 10.9316 32.4957 11.7296C32.4369 11.8112 32.3298 11.879 32.1745 11.933C32.027 11.9843 31.9348 11.9945 31.8981 11.9636C31.8796 11.9351 31.9062 11.8734 31.9779 11.7786C32.3055 11.3414 32.5103 10.9513 32.5922 10.6082C32.6268 10.4564 32.6231 10.3572 32.581 10.3107C32.5174 10.2017 32.3528 10.2415 32.0873 10.4299C31.6025 10.7645 31.1136 11.3015 30.6204 12.0409C29.8232 13.2356 29.4539 14.2465 29.5127 15.0736C29.5223 15.2275 29.5561 15.3512 29.6144 15.4445C29.715 15.6105 29.8973 15.6475 30.1614 15.5557C30.6428 15.3883 31.3217 14.7591 32.1981 13.6679C32.9771 12.6981 33.5166 11.9163 33.8165 11.3227Z" fill="#BCA8D2"/>
<path d="M38.9509 9.01645C39.1982 8.73481 39.4011 8.57228 39.5596 8.52887C39.5914 8.52019 39.6173 8.52164 39.6375 8.53324C39.644 8.55714 39.6299 8.5995 39.5953 8.66032C39.3292 9.09259 39.0052 9.51507 38.6231 9.92776C38.3909 10.171 38.1495 10.3955 37.8986 10.6011C37.6456 10.7987 37.4171 10.9297 37.2131 10.9941C37.1266 11.1462 36.9892 11.3464 36.8011 11.5947C36.1226 12.6106 35.4345 13.214 34.7368 13.405C34.3087 13.5222 33.9996 13.4186 33.8094 13.0941C33.7265 12.9456 33.6916 12.754 33.7047 12.5194C33.7474 11.8916 34.0766 11.0954 34.6923 10.1309C35.3989 9.03036 35.9424 8.42797 36.323 8.32379C36.4499 8.28906 36.5338 8.30031 36.5749 8.35753C36.6246 8.44662 36.564 8.55306 36.3932 8.67685C35.9398 9.01493 35.4831 9.57642 35.023 10.3613C34.6496 10.9942 34.4307 11.4435 34.3665 11.7092L34.3059 11.9569C34.3001 11.967 34.2907 12.0423 34.2777 12.1828C34.2351 12.5282 34.2448 12.7524 34.3067 12.8552C34.3831 12.9798 34.5045 13.0193 34.671 12.9737C34.9406 12.8999 35.2696 12.6686 35.6582 12.2799C36.0136 11.9258 36.267 11.604 36.4184 11.3144C35.9853 11.4757 35.6941 11.4228 35.545 11.1555C35.4477 10.9853 35.4164 10.7757 35.4511 10.5265C35.4901 10.1992 35.6635 9.81798 35.9714 9.38283C36.4826 8.66094 36.9681 8.23706 37.4279 8.11117C37.7133 8.03304 37.8985 8.07219 37.9835 8.22864C38.1809 8.61106 38.0485 9.28489 37.5863 10.2501C37.7621 10.1763 38.0418 9.96707 38.4253 9.62246L38.9509 9.01645ZM36.1722 10.5474C36.1851 10.5952 36.2049 10.6368 36.2316 10.6723C36.3267 10.8346 36.5007 10.8639 36.7537 10.7604C36.9297 10.4042 37.058 10.108 37.1388 9.87196L37.3498 9.23654C37.3671 9.11199 37.3733 9.02472 37.3682 8.97475C37.3704 8.88858 37.356 8.81977 37.325 8.76835C37.2876 8.69302 37.2292 8.66621 37.1499 8.68792C36.8883 8.75954 36.6187 9.11577 36.341 9.7566C36.1889 10.1063 36.1326 10.3699 36.1722 10.5474Z" fill="#BCA8D2"/>
<path d="M45.364 8.02316C45.4247 7.92358 45.539 7.85353 45.7067 7.81301C45.7627 7.79951 45.7935 7.8048 45.7993 7.82888C45.8268 7.87319 45.8164 7.91816 45.7681 7.96378C45.5739 8.28243 45.1977 8.77665 44.6396 9.44645C43.9101 10.3189 43.3816 10.7947 43.0541 10.8739C42.9262 10.9047 42.8369 10.8669 42.786 10.7602C42.7176 10.6154 42.7297 10.3832 42.8223 10.0636C42.8223 10.0636 42.8631 9.95186 42.9449 9.72831C43.1094 9.39136 43.2141 9.158 43.2592 9.02824C43.3732 8.76292 43.4461 8.52026 43.478 8.30026C43.2764 8.55275 42.9731 8.92748 42.568 9.42444C41.3267 10.9131 40.63 11.6928 40.4779 11.7635C40.3878 11.8107 40.316 11.811 40.2627 11.7645C40.2269 11.7562 40.2286 11.6751 40.2678 11.5212C40.3384 11.2154 40.4872 10.8483 40.7143 10.4198C40.8459 10.1927 41.0295 9.84692 41.2649 9.38245L41.6247 8.6077C40.5831 9.83582 39.6042 11.0785 38.6879 12.3358C38.6052 12.4492 38.444 12.5349 38.2043 12.5928C38.1244 12.6121 38.0716 12.6036 38.046 12.5673C38.0403 12.5432 38.0476 12.5032 38.0681 12.4473C38.628 11.361 39.0832 10.4019 39.4335 9.56993C39.682 8.98342 39.9298 8.2527 40.1769 7.37778C39.7529 7.76041 39.4791 7.95817 39.3554 7.97106C39.3055 7.97461 39.2737 7.9653 39.26 7.94315C39.2462 7.92099 39.2716 7.86815 39.3361 7.78463C39.8096 7.2202 40.2151 6.90149 40.5526 6.82848C40.6523 6.82138 40.7228 6.85107 40.7641 6.91754C40.8623 7.08066 40.7764 7.53448 40.5066 8.27902L39.9361 9.86894C39.8093 10.2223 39.7246 10.4338 39.6822 10.5035C40.1962 9.86131 40.9831 8.91124 42.0429 7.65324C42.3631 7.29569 42.5911 7.10052 42.7269 7.06771C42.7748 7.05614 42.8017 7.06239 42.8074 7.08648C42.8269 7.13272 42.7818 7.2795 42.6719 7.52683L41.3999 10.318C41.6456 10.0378 42.0042 9.61153 42.4758 9.03908L44.1115 7.02634C44.184 6.94089 44.3161 6.87501 44.5079 6.8287C44.5958 6.80748 44.6565 6.81404 44.6901 6.8484C44.6898 6.88244 44.6834 6.92644 44.6709 6.9804C43.7792 9.04703 43.3618 10.1287 43.4187 10.2253C43.4245 10.2494 43.4473 10.2566 43.4873 10.247C43.695 10.1968 44.1156 9.74705 44.7492 8.89771C45.0115 8.54563 45.2164 8.25412 45.364 8.02316Z" fill="#BCA8D2"/>
<path d="M52.1379 7.28888C52.2104 7.19763 52.3324 7.14235 52.5039 7.12305C52.5611 7.11661 52.591 7.12571 52.5938 7.15032C52.6156 7.19772 52.5997 7.24104 52.5462 7.2803C52.3142 7.5723 51.8799 8.01585 51.2434 8.61095C50.412 9.38585 49.8289 9.79215 49.4941 9.82984C49.3634 9.84455 49.2794 9.79584 49.2421 9.68372C49.1921 9.53149 49.2327 9.30258 49.364 8.99699C49.364 8.99699 49.4183 8.89117 49.5271 8.67953C49.7319 8.36567 49.8646 8.14716 49.9253 8.02401C50.0712 7.77495 50.1735 7.54325 50.2323 7.32891C50.0011 7.55434 49.6538 7.88839 49.1905 8.33105C47.7752 9.65359 46.9877 10.3405 46.828 10.3917C46.7328 10.4273 46.6615 10.4187 46.6143 10.3659C46.5798 10.3531 46.5915 10.2729 46.6495 10.1251C46.7572 9.8305 46.9502 9.48474 47.2284 9.08784C47.387 8.87889 47.6118 8.55863 47.9027 8.12706L48.3553 7.40311C47.1702 8.49201 46.0455 9.60319 44.9812 10.7367C44.8851 10.8389 44.7146 10.9038 44.4696 10.9313C44.3879 10.9405 44.3366 10.9255 44.3157 10.8864C44.313 10.8617 44.3252 10.823 44.3524 10.7701C45.0421 9.76185 45.612 8.86682 46.0623 8.08497C46.3813 7.53393 46.7173 6.83972 47.0704 6.00233C46.6025 6.32919 46.3064 6.49131 46.182 6.48869C46.1321 6.486 46.1017 6.47281 46.0908 6.44911C46.0799 6.42541 46.1116 6.37614 46.1859 6.3013C46.7254 5.80022 47.1671 5.53447 47.511 5.50407C47.6108 5.50945 47.6771 5.54768 47.7098 5.61878C47.7871 5.79287 47.646 6.2325 47.2864 6.93768L46.5241 8.44427C46.3547 8.77907 46.2446 8.9784 46.1939 9.04228C46.7832 8.46911 47.6813 7.62439 48.8881 6.50811C49.2499 6.1932 49.5002 6.02793 49.639 6.0123C49.688 6.00679 49.7139 6.01634 49.7166 6.04096C49.7303 6.08927 49.6673 6.22929 49.5278 6.46103L47.9212 9.07216C48.1996 8.8248 48.608 8.44648 49.1466 7.93718L51.018 6.14372C51.1005 6.06796 51.2397 6.01905 51.4357 5.99699C51.5256 5.98688 51.585 6.00096 51.6141 6.03923C51.6096 6.07297 51.5978 6.11584 51.5788 6.16783C50.439 8.10743 49.8913 9.12873 49.9359 9.23173C49.9386 9.25634 49.9604 9.26635 50.0013 9.26176C50.2136 9.23786 50.6865 8.84397 51.4199 8.0801C51.7236 7.76341 51.9629 7.49967 52.1379 7.28888Z" fill="#BCA8D2"/>
<path d="M58.1209 6.3484C58.2108 6.25704 58.3543 6.21078 58.5515 6.20962C58.6173 6.20923 58.6543 6.22553 58.6627 6.25851C58.663 6.29979 58.6468 6.33704 58.6141 6.37027C58.1975 6.80209 57.7192 7.2219 57.1793 7.62969L55.6452 8.77822C55.2852 9.04457 54.9129 9.31925 54.5283 9.60226C53.9554 9.98547 53.4389 10.1949 52.9789 10.2307C52.4779 10.2749 52.1936 10.1321 52.1259 9.80221C52.0415 9.41463 52.2239 8.98831 52.6731 8.52326C52.9917 8.19935 53.3803 7.90393 53.8389 7.63699C53.5596 7.65516 53.3006 7.61953 53.0618 7.5301C52.8971 7.47328 52.7979 7.3789 52.7643 7.24699C52.7139 7.05737 52.8603 6.79641 53.2034 6.4641C53.7183 5.97389 54.476 5.56895 55.4767 5.24927C55.9442 5.09789 56.3628 5.01698 56.7325 5.00654C57.0941 4.99615 57.2875 5.05281 57.3129 5.17652C57.3384 5.325 57.2244 5.49907 56.9708 5.69874C56.6436 5.95664 56.3855 6.08615 56.1965 6.08726C56.0732 6.08799 56.0073 6.05948 55.9988 6.00173C55.982 5.93577 56.0514 5.86104 56.207 5.77756C56.5183 5.60232 56.6697 5.49821 56.6613 5.46523C56.661 5.42395 56.6034 5.40777 56.4884 5.41671C56.1517 5.45172 55.7251 5.57397 55.2086 5.78344C53.9379 6.29462 53.3406 6.73164 53.4167 7.09451C53.4335 7.16047 53.483 7.20146 53.5653 7.21749C53.7052 7.2497 53.9188 7.24844 54.2062 7.21371C54.5593 7.17035 54.8507 7.11496 55.0804 7.04754C55.1133 7.03909 55.1625 7.03467 55.2283 7.03429C55.3022 7.03385 55.3517 7.05833 55.3766 7.10773C55.3936 7.19846 55.2833 7.30645 55.0457 7.43171C54.8736 7.51529 54.7098 7.59883 54.5541 7.68232C54.3984 7.75755 54.1651 7.90756 53.8542 8.13233C53.175 8.62351 52.7995 9.06335 52.7278 9.45186C52.7293 9.69957 52.8245 9.82287 53.0135 9.82175C53.4655 9.81909 54.3542 9.33493 55.6798 8.36929C56.7108 7.61181 57.5245 6.93818 58.1209 6.3484Z" fill="#BCA8D2"/>
<path d="M60.9268 9.65268C60.6196 9.75542 60.3597 9.79642 60.1471 9.77565C59.9508 9.75649 59.8357 9.66644 59.8017 9.5055C59.7909 9.44637 59.8005 9.38924 59.8306 9.33411C59.8354 9.2848 59.8679 9.20501 59.9281 9.09475C59.9859 9.00914 60.0689 8.87621 60.1772 8.69598C60.2741 8.54781 60.8176 7.87913 61.8077 6.68994C60.6347 7.38011 59.5159 8.19173 58.4515 9.1248C57.9825 9.53528 57.6306 9.71662 57.3958 9.6688C57.2739 9.64861 57.252 9.57596 57.3302 9.45085C57.3677 9.40474 57.4055 9.35451 57.4438 9.30018C57.4829 9.23762 57.5534 9.1491 57.6553 9.03461L57.9597 8.70347C58.2084 8.43738 58.6573 7.85072 59.3064 6.94348C59.4489 6.75 59.6591 6.45527 59.9368 6.05929C59.9954 5.96546 60.0654 5.83956 60.1467 5.68158C60.1866 5.61081 60.2134 5.54706 60.2271 5.49033C59.8735 5.64661 59.4984 5.85472 59.1017 6.11464C58.9956 6.18724 58.8452 6.20574 58.6505 6.17014C58.5695 6.15394 58.5224 6.1286 58.5093 6.09413C58.5043 6.06046 58.5417 6.01434 58.6217 5.95578C59.5032 5.37817 60.1443 5.10893 60.545 5.14806C60.7495 5.16802 60.8613 5.24946 60.8805 5.39236C60.8947 5.50159 60.7912 5.7611 60.57 6.17089C60.5008 6.28857 60.2959 6.57137 59.9554 7.01929C59.8332 7.17328 59.6401 7.41989 59.3761 7.75914L59.2625 7.90981C60.0915 7.2773 60.8154 6.79215 61.4342 6.45437C61.5566 6.38337 61.7407 6.27275 61.9864 6.12253C62.2052 5.99456 62.4086 5.93976 62.5967 5.95812C62.7603 5.9741 62.8426 6.01946 62.8436 6.09423C62.861 6.17059 62.7854 6.31253 62.6167 6.52005C62.6323 6.52986 62.6042 6.56445 62.5324 6.62381C62.0858 7.14432 61.4388 7.94393 60.5914 9.02263C60.5793 9.06292 60.5626 9.10692 60.5415 9.15464C60.5212 9.19413 60.5176 9.23112 60.5308 9.26559C60.5482 9.34195 60.6108 9.3771 60.7187 9.37104C61.1504 9.34682 61.9232 8.95355 63.0372 8.19124C63.2404 8.05346 63.4399 7.91117 63.6357 7.76437C63.7067 7.71323 63.8289 7.68783 64.0022 7.68816C64.0848 7.68793 64.1249 7.70014 64.1225 7.72479C64.1193 7.75767 64.0912 7.79226 64.0382 7.82856C63.4858 8.24749 62.9945 8.58943 62.5644 8.85438C61.984 9.22082 61.4382 9.48691 60.9268 9.65268Z" fill="#BCA8D2"/>
<path d="M74.6384 1.15848C74.7234 1.05085 74.9131 1.01183 75.2075 1.04141C75.2892 1.04962 75.3326 1.07057 75.3375 1.10426C75.3457 1.10508 75.3395 1.12521 75.3191 1.16465L68.6029 9.02862C68.4999 9.15104 68.3547 9.32316 68.1675 9.545C68.0849 9.62798 67.9737 9.74958 67.8339 9.90979C67.591 10.1924 67.3768 10.5194 67.1912 10.8908C67.1291 11.0173 66.9467 11.0654 66.6442 11.035C66.5461 11.0251 66.4913 10.9947 66.4798 10.9438C66.4725 10.9347 66.4786 10.9146 66.4982 10.8834C66.6536 10.5671 66.8821 10.2208 67.1838 9.84447C67.3695 9.63907 67.6438 9.33056 68.0068 8.91894L68.5391 8.30027C66.9725 9.52035 65.7317 10.2462 64.8167 10.4779C64.6557 10.5198 64.5015 10.5334 64.3544 10.5186C64.0764 10.4907 63.9214 10.3465 63.8895 10.086C63.8854 10.0441 63.8785 9.98948 63.8687 9.9221C63.8572 9.87117 63.8625 9.81776 63.8846 9.76189C63.9132 9.47433 64.0126 9.18143 64.1827 8.88319C64.5024 8.32614 65.0265 7.83112 65.755 7.39814C66.773 6.79508 67.795 6.52437 68.8212 6.58599C68.9447 6.5901 69.0162 6.61803 69.0358 6.66979C69.0424 6.68705 69.0313 6.71498 69.0027 6.7536C68.8948 6.84233 68.7987 6.89491 68.7145 6.91135C68.663 6.93106 68.6168 6.93887 68.5759 6.93476C68.042 6.906 67.4684 7.02678 66.8552 7.29708C66.2853 7.54685 65.8126 7.85618 65.4373 8.22508C65.1356 8.5184 64.9136 8.79897 64.7714 9.06682C64.6904 9.21635 64.6373 9.33548 64.6119 9.42421C64.5948 9.51377 64.5747 9.63208 64.5518 9.77915C64.5273 9.94265 64.5845 10.0314 64.7235 10.0453C65.0342 10.0766 65.8744 9.64235 67.2439 8.7427C67.9062 8.31136 68.3723 7.98477 68.6421 7.76294C69.2611 7.26916 69.9561 6.59216 70.7271 5.73194C72.3715 3.8973 73.6752 2.37281 74.6384 1.15848Z" fill="#BCA8D2"/>
<path d="M76.0344 9.86344C76.1433 9.79615 76.2937 9.78548 76.4855 9.83143C76.5495 9.84675 76.5816 9.87143 76.582 9.90547C76.5725 9.94563 76.5479 9.97794 76.5083 10.0024C76.0016 10.3224 75.4377 10.616 74.8168 10.8832L73.0551 11.6327C72.6424 11.8055 72.2159 11.9834 71.7754 12.1665C71.1282 12.4019 70.577 12.4821 70.1217 12.407C69.6246 12.3304 69.3822 12.1238 69.3945 11.7872C69.4041 11.3905 69.6821 11.02 70.2284 10.6755C70.6145 10.4369 71.0618 10.2427 71.5704 10.0929C71.2948 10.0439 71.0516 9.94743 70.8407 9.80355C70.6942 9.70904 70.6202 9.59369 70.6187 9.45752C70.6146 9.2613 70.8185 9.04276 71.2304 8.80189C71.8464 8.44862 72.6782 8.23617 73.7258 8.16454C74.2157 8.12909 74.6415 8.15043 75.0031 8.22856C75.3567 8.30477 75.5312 8.40599 75.5266 8.53221C75.5163 8.68253 75.3644 8.8244 75.0708 8.95781C74.692 9.13022 74.4107 9.1944 74.2269 9.15037C74.107 9.12165 74.0497 9.07822 74.055 9.02008C74.0543 8.952 74.1394 8.89598 74.3103 8.85204C74.6541 8.75612 74.8258 8.69114 74.8254 8.6571C74.8349 8.61694 74.7828 8.58748 74.669 8.5687C74.3336 8.52233 73.8903 8.53924 73.3391 8.61942C71.9839 8.81261 71.3004 9.09452 71.2885 9.46516C71.2892 9.53324 71.3276 9.58489 71.4038 9.6201C71.532 9.68478 71.7399 9.73456 72.0273 9.76944C72.3805 9.81161 72.6766 9.82737 72.9157 9.81672C72.9496 9.81635 72.9985 9.82382 73.0624 9.83914C73.1344 9.85637 73.1766 9.89195 73.1892 9.94589C73.1842 10.0381 73.0515 10.1166 72.7911 10.1816C72.6042 10.2217 72.4253 10.2637 72.2544 10.3077C72.0853 10.3436 71.8232 10.4336 71.468 10.5777C70.6922 10.8927 70.2235 11.2303 70.062 11.5906C70.0048 11.8315 70.0682 11.974 70.252 12.0181C70.6917 12.1234 71.6695 11.8653 73.1854 11.2437C74.366 10.754 75.3156 10.2939 76.0344 9.86344Z" fill="#BCA8D2"/>
<path d="M86.9914 6.5436C87.0966 6.45585 87.2903 6.45688 87.5723 6.54669C87.6506 6.57164 87.6887 6.6011 87.6866 6.63508C87.6945 6.63757 87.6843 6.656 87.6562 6.69037L79.4734 12.9974C79.3475 13.0959 79.1702 13.2344 78.9416 13.4127C78.8438 13.4769 78.7101 13.5729 78.5404 13.7007C78.2449 13.9271 77.9683 14.2028 77.7106 14.5279C77.6239 14.6388 77.4356 14.6482 77.1458 14.5559C77.0518 14.5259 77.0044 14.4849 77.0036 14.4326C76.9983 14.4223 77.0084 14.4038 77.034 14.3773C77.2508 14.0999 77.5454 13.8083 77.9177 13.5024C78.1414 13.3398 78.473 13.0946 78.9126 12.7668L79.5602 12.2715C77.7772 13.1415 76.4143 13.5953 75.4715 13.6329C75.3053 13.6406 75.1517 13.622 75.0107 13.5771C74.7444 13.4923 74.6223 13.3191 74.6444 13.0577C74.649 13.0158 74.6534 12.9609 74.6575 12.8929C74.6568 12.8407 74.6729 12.7896 74.706 12.7395C74.7929 12.464 74.95 12.1979 75.1776 11.9412C75.6045 11.4622 76.2188 11.0861 77.0204 10.813C78.14 10.4333 79.1957 10.3797 80.1872 10.6522C80.3072 10.6818 80.3715 10.7239 80.3801 10.7786C80.383 10.7968 80.3665 10.8219 80.3306 10.8538C80.2068 10.9183 80.102 10.9499 80.0162 10.9485C79.9618 10.9572 79.9149 10.9553 79.8758 10.9428C79.3592 10.8043 78.7731 10.8039 78.1177 10.9416C77.5088 11.0682 76.983 11.2732 76.5402 11.5566C76.1848 11.7812 75.9101 12.0099 75.7161 12.2426C75.6062 12.3722 75.5298 12.4778 75.4868 12.5594C75.4517 12.6435 75.4079 12.7551 75.3554 12.8943C75.2979 13.0492 75.3357 13.1479 75.4689 13.1903C75.7665 13.2851 76.6776 13.0339 78.2021 12.4366C78.9386 12.1515 79.4615 11.9282 79.771 11.7669C80.4778 11.4117 81.2966 10.8929 82.2273 10.2105C84.2121 8.75509 85.8001 7.53279 86.9914 6.5436Z" fill="#BCA8D2"/>
<path d="M104.687 16.338C105.164 16.4592 105.551 16.601 105.847 16.7634C106.481 17.1121 106.664 17.5328 106.396 18.0254C106.222 18.3441 105.88 18.664 105.368 18.985C105.206 19.0935 105.022 19.1994 104.816 19.3026C103.064 20.2317 101.299 20.8758 99.521 21.2349C100.024 21.5676 100.773 22.0831 101.77 22.7815C101.856 22.8475 101.894 22.897 101.886 22.9299C101.868 23.0142 101.758 23.0527 101.556 23.0452C101.361 23.0417 101.23 23.0165 101.162 22.9696L99.6825 21.9448C99.2487 21.6405 98.9689 21.4491 98.8431 21.3705C94.7165 22.086 90.7734 21.5612 87.0137 19.796C86.9344 19.7525 86.8115 19.6943 86.645 19.6216L86.2773 19.4196C84.1433 18.2468 83.0829 17.0804 83.096 15.9206C83.0876 15.8501 83.0946 15.7599 83.117 15.6498C83.2981 15.0247 83.9457 14.7124 85.0599 14.713C86.4096 14.7113 88.1113 15.1383 90.165 15.9941C91.4615 16.5372 92.7911 17.1833 94.1537 17.9321C95.6965 18.7801 97.2828 19.746 98.9125 20.8299C100.48 20.5148 102.031 19.9791 103.566 19.2231C104.218 18.9036 104.733 18.5938 105.112 18.2937C105.377 18.0819 105.54 17.8939 105.601 17.7299C105.704 17.4381 105.572 17.1911 105.204 16.9891C104.497 16.6008 103.524 16.4797 102.283 16.6259C101.094 16.7629 100.169 17.0926 99.5104 17.6151C99.2833 17.7914 99.1106 17.9883 98.9923 18.2056C98.9331 18.3143 98.8864 18.4345 98.8522 18.5662C98.7448 18.9872 98.8497 19.2849 99.1669 19.4592C99.2246 19.4909 99.2698 19.511 99.3026 19.5196C99.3354 19.5283 99.3718 19.5388 99.4118 19.5514C99.4478 19.5712 99.4694 19.5831 99.4767 19.5871C99.5848 19.6465 99.6287 19.7036 99.6083 19.7582C99.5951 19.8169 99.5327 19.8626 99.4212 19.8954C99.2434 19.9295 99.0464 19.8871 98.8301 19.7682C98.5201 19.5978 98.2968 19.3715 98.16 19.0893C98.0272 18.7999 98.0164 18.4928 98.1276 18.168C98.3093 17.6279 98.7278 17.1944 99.3834 16.8677C99.7318 16.6921 100.299 16.5099 101.086 16.321C102.284 16.0292 103.485 16.0348 104.687 16.338ZM92.2132 21.0584C94.0366 21.3735 96.0474 21.3446 98.2454 20.9715C96.2742 19.6717 94.6939 18.6949 93.5043 18.0411C91.9831 17.2051 90.4533 16.5054 88.9147 15.9422C86.6977 15.1284 85.1915 14.9359 84.3962 15.3647C84.1337 15.5027 83.9532 15.6623 83.8546 15.8434C83.6653 16.1912 83.7711 16.6163 84.1718 17.1189C84.7481 17.8498 85.6058 18.5282 86.7449 19.1542L87.0801 19.3385C88.5508 20.1468 90.2619 20.7201 92.2132 21.0584Z" fill="#BCA8D2"/>
<path d="M105.801 25.8629L105.811 25.9145C105.801 25.9579 105.738 25.985 105.622 25.9958C105.51 25.9998 105.442 25.9834 105.417 25.9466C104.559 25.305 103.572 24.6055 102.455 23.8479L101.699 23.3352C101.358 23.1043 101.101 22.9345 100.926 22.8258L97.9322 23.829C97.3659 24.0227 96.9617 24.167 96.7195 24.2618L93.4198 25.6101C93.6455 25.5839 93.8265 25.617 93.9628 25.7094C94.0309 25.7556 94.0579 25.8039 94.044 25.8542C94.0231 25.9296 93.7058 26.0034 93.0924 26.0755C92.5769 26.1343 92.2341 26.1061 92.0638 25.9906C92.0161 25.9582 91.9936 25.918 91.9961 25.87C92.006 25.7372 92.1366 25.6166 92.3879 25.5081C93.5255 25.0542 94.7145 24.5606 95.9551 24.0273C96.3137 23.8919 96.8344 23.7071 97.5171 23.4728L97.9419 23.3275C98.4419 23.1586 99.2674 22.8816 100.418 22.4966L95.009 19.0374C95.009 19.0374 94.9931 19.0167 94.9615 18.9753C94.9708 18.9318 95.0314 18.9081 95.1431 18.9042C95.248 18.8956 95.3208 18.9052 95.3617 18.9329L100.761 22.3852C101.391 22.1552 102.08 21.9198 102.826 21.679C102.913 21.6383 103.066 21.6472 103.284 21.7057C103.402 21.7361 103.479 21.7629 103.513 21.786C103.56 21.8183 103.575 21.8482 103.557 21.8756C103.545 21.9076 103.512 21.9348 103.457 21.9574C103.048 22.1085 102.319 22.3609 101.268 22.7144C101.45 22.8277 101.711 22.9998 102.052 23.2307L102.818 23.7504C103.928 24.5033 104.922 25.2075 105.801 25.8629Z" fill="#BCA8D2"/>
<path d="M100.783 29.8394C100.911 29.8376 101.046 29.9059 101.187 30.0441C101.234 30.0901 101.249 30.1279 101.232 30.1573C101.203 30.1869 101.166 30.202 101.119 30.2026C100.521 30.2166 99.887 30.1786 99.2175 30.0884L97.3224 29.8252C96.8799 29.7612 96.4229 29.6945 95.9512 29.625C95.2754 29.4941 94.7611 29.2792 94.4084 28.9804C94.0205 28.6587 93.9177 28.3564 94.0998 28.0737C94.3103 27.738 94.7379 27.5628 95.3828 27.5482C95.8359 27.542 96.3191 27.6055 96.8323 27.7386C96.6206 27.5546 96.4609 27.3466 96.3532 27.1145C96.2755 26.9579 96.2707 26.8208 96.3389 26.703C96.4354 26.5324 96.7219 26.4497 97.1985 26.4548C97.9076 26.4685 98.7303 26.7142 99.6665 27.1919C100.105 27.4137 100.46 27.6512 100.731 27.9044C100.996 28.1519 101.094 28.3286 101.026 28.4347C100.94 28.5585 100.737 28.6021 100.417 28.5656C100.004 28.5187 99.7297 28.429 99.5943 28.2965C99.5059 28.2101 99.4789 28.1434 99.5131 28.0962C99.5472 28.0373 99.6488 28.033 99.818 28.0833C100.162 28.1778 100.343 28.2104 100.36 28.181C100.388 28.1514 100.359 28.0993 100.27 28.0245C100.006 27.8121 99.6168 27.5984 99.1025 27.3836C97.8402 26.8519 97.1094 26.7422 96.9102 27.0544C96.8761 27.1132 96.8828 27.1774 96.9302 27.2468C97.0074 27.3683 97.1605 27.5181 97.3896 27.696C97.6714 27.914 97.9178 28.08 98.1285 28.1939C98.1578 28.211 98.196 28.2426 98.2431 28.2887C98.2961 28.3405 98.3142 28.3928 98.2975 28.4456C98.2462 28.5222 98.0922 28.5214 97.8355 28.4431C97.6545 28.3814 97.4794 28.3254 97.3102 28.2751C97.1468 28.219 96.8758 28.1613 96.4973 28.1023C95.6703 27.9734 95.0957 28.0221 94.7733 28.2484C94.6014 28.4259 94.5832 28.5809 94.7186 28.7134C95.0425 29.0301 96.0138 29.3117 97.6326 29.5583C98.8962 29.7454 99.9463 29.8391 100.783 29.8394Z" fill="#BCA8D2"/>
<path d="M103.572 35.8656C103.688 35.8762 103.801 35.948 103.911 36.0812C103.948 36.1256 103.957 36.1557 103.938 36.1716C103.911 36.216 103.866 36.2266 103.804 36.2033C103.433 36.1696 102.826 36.0497 101.981 35.8437C100.879 35.5732 100.221 35.3079 100.005 35.0479C99.9208 34.9464 99.915 34.8492 99.9876 34.7561C100.086 34.6303 100.299 34.5383 100.625 34.4801C100.625 34.4801 100.743 34.4674 100.979 34.442C101.352 34.4409 101.607 34.4318 101.742 34.4149C102.03 34.4 102.278 34.3582 102.489 34.2895C102.174 34.2198 101.706 34.1125 101.083 33.9678C99.2046 33.5093 98.2003 33.2272 98.0698 33.1215C97.9877 33.0612 97.9556 32.9967 97.9735 32.928C97.9651 32.8921 98.0382 32.8577 98.1929 32.8249C98.4969 32.753 98.8904 32.7244 99.3733 32.7391C99.6342 32.757 100.024 32.7691 100.543 32.7754L101.393 32.7562C99.8362 32.3621 98.2937 32.0309 96.766 31.7626C96.6282 31.7384 96.4803 31.6311 96.3225 31.4408C96.2699 31.3774 96.2541 31.3261 96.2751 31.287C96.2941 31.2711 96.333 31.26 96.3919 31.2537C97.6092 31.2767 98.6666 31.2618 99.564 31.2087C100.197 31.1727 100.959 31.0721 101.849 30.9071C101.32 30.6947 101.022 30.5356 100.956 30.4299C100.931 30.3865 100.925 30.3538 100.938 30.3316C100.952 30.3094 101.011 30.3088 101.114 30.33C101.827 30.5064 102.291 30.7304 102.506 31.0021C102.556 31.0888 102.561 31.1654 102.52 31.2321C102.418 31.3928 101.975 31.5165 101.191 31.6033L99.5199 31.7939C99.1485 31.8363 98.9223 31.8537 98.8413 31.8464C99.642 32.0249 100.838 32.3128 102.43 32.71C102.891 32.84 103.166 32.9589 103.256 33.0667C103.287 33.1048 103.294 33.1317 103.275 33.1476C103.242 33.1857 103.091 33.21 102.822 33.2206L99.768 33.3115C100.127 33.4087 100.666 33.5429 101.386 33.714L103.906 34.2956C104.014 34.3231 104.132 34.4129 104.258 34.5651C104.316 34.6349 104.337 34.6925 104.321 34.738C104.291 34.7528 104.249 34.7665 104.195 34.7792C101.956 34.8917 100.806 34.9949 100.745 35.089C100.726 35.1049 100.73 35.1287 100.756 35.1604C100.893 35.3253 101.481 35.5049 102.519 35.6993C102.949 35.7795 103.3 35.835 103.572 35.8656Z" fill="#BCA8D2"/>
</svg>
